<svg width="32" height="32" viewBox="0 0 32 32" fill="none" xmlns="http://www.w3.org/2000/svg">
<g clip-path="url(#clip0_3602_597)">
<path d="M29.3327 5.34668C27.9993 6.00002 26.6927 6.26535 25.3327 6.66668C23.838 4.98002 21.622 4.88668 19.4927 5.68402C17.3633 6.48135 15.9687 8.43068 15.9993 10.6667V12C11.6727 12.1107 7.81935 10.14 5.33268 6.66668C5.33268 6.66668 -0.243318 16.5774 10.666 21.3334C8.17002 22.996 5.68068 24.1174 2.66602 24C7.07668 26.404 11.8833 27.2307 16.0447 26.0227C20.818 24.636 24.7407 21.0587 26.246 15.7C26.6951 14.0702 26.918 12.3865 26.9087 10.696C26.906 10.364 28.922 7.00002 29.3327 5.34535V5.34668Z" stroke="#1C1917" stroke-width="2" stroke-linecap="round" stroke-linejoin="round"/>
</g>
<defs>
<clipPath id="clip0_3602_597">
<rect width="32" height="32" fill="white"/>
</clipPath>
</defs>
</svg>
