<svg width="32" height="32" viewBox="0 0 32 32" fill="none" xmlns="http://www.w3.org/2000/svg">
<g clip-path="url(#clip0_3602_592)">
<path d="M15.9993 21.3346C18.9449 21.3346 21.3327 18.9468 21.3327 16.0013C21.3327 13.0558 18.9449 10.668 15.9993 10.668C13.0538 10.668 10.666 13.0558 10.666 16.0013C10.666 18.9468 13.0538 21.3346 15.9993 21.3346Z" stroke="#1C1917" stroke-width="2" stroke-linecap="round" stroke-linejoin="round"/>
<path d="M21.3333 16V18C21.3333 18.8841 21.6845 19.7319 22.3096 20.3571C22.9348 20.9822 23.7826 21.3334 24.6667 21.3334C25.5507 21.3334 26.3986 20.9822 27.0237 20.3571C27.6488 19.7319 28 18.8841 28 18V16C28.0033 13.4215 27.176 10.9105 25.6405 8.83896C24.1051 6.76743 21.9432 5.24558 19.4752 4.49884C17.0071 3.7521 14.3642 3.8202 11.9379 4.69306C9.51161 5.56591 7.43099 7.19708 6.00427 9.34494C4.57756 11.4928 3.88063 14.0431 4.01674 16.618C4.15284 19.193 5.11474 21.6556 6.75994 23.6411C8.40513 25.6265 10.6461 27.0293 13.1509 27.6415C15.6557 28.2537 18.2911 28.0428 20.6667 27.04" stroke="#1C1917" stroke-width="2" stroke-linecap="round" stroke-linejoin="round"/>
</g>
<defs>
<clipPath id="clip0_3602_592">
<rect width="32" height="32" fill="white"/>
</clipPath>
</defs>
</svg>
