<svg width="24" height="24" viewBox="0 0 24 24" fill="none" xmlns="http://www.w3.org/2000/svg">
<g clip-path="url(#clip0_3602_617)">
<path d="M12 20.8997L16.95 15.9497C17.9289 14.9707 18.5955 13.7234 18.8656 12.3656C19.1356 11.0077 18.9969 9.60028 18.4671 8.32123C17.9373 7.04219 17.04 5.94898 15.8889 5.17985C14.7378 4.41071 13.3844 4.00018 12 4.00018C10.6156 4.00018 9.26222 4.41071 8.11109 5.17985C6.95996 5.94898 6.06275 7.04219 5.53292 8.32123C5.00308 9.60028 4.86442 11.0077 5.13445 12.3656C5.40449 13.7234 6.07111 14.9707 7.05 15.9497L12 20.8997ZM12 23.7277L5.636 17.3637C4.37734 16.105 3.52019 14.5014 3.17293 12.7555C2.82567 11.0097 3.00391 9.20011 3.6851 7.55558C4.36629 5.91105 5.51984 4.50545 6.99988 3.51652C8.47992 2.52759 10.22 1.99976 12 1.99976C13.78 1.99976 15.5201 2.52759 17.0001 3.51652C18.4802 4.50545 19.6337 5.91105 20.3149 7.55558C20.9961 9.20011 21.1743 11.0097 20.8271 12.7555C20.4798 14.5014 19.6227 16.105 18.364 17.3637L12 23.7277ZM12 12.9997C12.5304 12.9997 13.0391 12.789 13.4142 12.4139C13.7893 12.0388 14 11.5301 14 10.9997C14 10.4692 13.7893 9.96054 13.4142 9.58546C13.0391 9.21039 12.5304 8.99968 12 8.99968C11.4696 8.99968 10.9609 9.21039 10.5858 9.58546C10.2107 9.96054 10 10.4692 10 10.9997C10 11.5301 10.2107 12.0388 10.5858 12.4139C10.9609 12.789 11.4696 12.9997 12 12.9997ZM12 14.9997C10.9391 14.9997 9.92172 14.5783 9.17158 13.8281C8.42143 13.078 8 12.0605 8 10.9997C8 9.93881 8.42143 8.9214 9.17158 8.17125C9.92172 7.4211 10.9391 6.99968 12 6.99968C13.0609 6.99968 14.0783 7.4211 14.8284 8.17125C15.5786 8.9214 16 9.93881 16 10.9997C16 12.0605 15.5786 13.078 14.8284 13.8281C14.0783 14.5783 13.0609 14.9997 12 14.9997Z" fill="#1C1917"/>
</g>
<defs>
<clipPath id="clip0_3602_617">
<rect width="24" height="24" fill="white" transform="translate(0 -0.000244141)"/>
</clipPath>
</defs>
</svg>
